<mxfile host="app.diagrams.net" agent="Mozilla/5.0 (Windows NT 10.0; Win64; x64) AppleWebKit/537.36 (KHTML, like Gecko) Chrome/136.0.0.0 Safari/537.36 Edg/136.0.0.0" version="27.0.9" pages="2">
  <diagram id="prtHgNgQTEPvFCAcTncT" name="Page-1">
    <mxGraphModel dx="3756" dy="826" grid="1" gridSize="10" guides="1" tooltips="1" connect="1" arrows="1" fold="1" page="1" pageScale="1" pageWidth="1169" pageHeight="827" math="0" shadow="0">
      <root>
        <mxCell id="0" />
        <mxCell id="1" parent="0" />
        <mxCell id="CrI34jUcvFCijBm1rNz6-1" value="Usuário&lt;div&gt;&lt;br&gt;&lt;/div&gt;" style="shape=umlActor;verticalLabelPosition=bottom;verticalAlign=top;outlineConnect=0;html=1;movable=0;resizable=0;rotatable=0;deletable=0;editable=0;locked=1;connectable=0;" parent="1" vertex="1">
          <mxGeometry x="-2255" y="10" width="30" height="60" as="geometry" />
        </mxCell>
        <mxCell id="CrI34jUcvFCijBm1rNz6-10" value="" style="endArrow=classic;html=1;rounded=0;movable=0;resizable=0;rotatable=0;deletable=0;editable=0;locked=1;connectable=0;" parent="1" edge="1" source="Iz0xuYaKdpiuisNHUyM_-4">
          <mxGeometry width="50" height="50" relative="1" as="geometry">
            <mxPoint x="-2240" y="158" as="sourcePoint" />
            <mxPoint x="-2040" y="150" as="targetPoint" />
          </mxGeometry>
        </mxCell>
        <mxCell id="CrI34jUcvFCijBm1rNz6-15" value="&lt;span style=&quot;font-weight: normal;&quot;&gt;alt&lt;/span&gt;" style="swimlane;whiteSpace=wrap;html=1;startSize=23;" parent="1" vertex="1">
          <mxGeometry x="-2300" y="190" width="1110" height="530" as="geometry">
            <mxRectangle x="-1140" y="190" width="50" height="30" as="alternateBounds" />
          </mxGeometry>
        </mxCell>
        <mxCell id="CrI34jUcvFCijBm1rNz6-12" value="" style="endArrow=classic;html=1;rounded=0;" parent="CrI34jUcvFCijBm1rNz6-15" edge="1" source="Iz0xuYaKdpiuisNHUyM_-6">
          <mxGeometry width="50" height="50" relative="1" as="geometry">
            <mxPoint x="270" y="70" as="sourcePoint" />
            <mxPoint x="60" y="74" as="targetPoint" />
          </mxGeometry>
        </mxCell>
        <mxCell id="CrI34jUcvFCijBm1rNz6-34" value="" style="endArrow=classic;html=1;rounded=0;" parent="CrI34jUcvFCijBm1rNz6-15" edge="1">
          <mxGeometry width="50" height="50" relative="1" as="geometry">
            <mxPoint x="490" y="500" as="sourcePoint" />
            <mxPoint x="270" y="500" as="targetPoint" />
            <Array as="points">
              <mxPoint x="390" y="500" />
            </Array>
          </mxGeometry>
        </mxCell>
        <mxCell id="CrI34jUcvFCijBm1rNz6-35" value="" style="endArrow=classic;html=1;rounded=0;" parent="CrI34jUcvFCijBm1rNz6-15" edge="1">
          <mxGeometry width="50" height="50" relative="1" as="geometry">
            <mxPoint x="270" y="510" as="sourcePoint" />
            <mxPoint x="60" y="510" as="targetPoint" />
            <Array as="points">
              <mxPoint x="170" y="510" />
            </Array>
          </mxGeometry>
        </mxCell>
        <mxCell id="CrI34jUcvFCijBm1rNz6-36" value="" style="endArrow=classic;html=1;rounded=0;entryX=1;entryY=0.25;entryDx=0;entryDy=0;" parent="CrI34jUcvFCijBm1rNz6-15" edge="1">
          <mxGeometry width="50" height="50" relative="1" as="geometry">
            <mxPoint x="488" y="53" as="sourcePoint" />
            <mxPoint x="272.5" y="53" as="targetPoint" />
          </mxGeometry>
        </mxCell>
        <mxCell id="CrI34jUcvFCijBm1rNz6-45" value="" style="endArrow=classic;html=1;rounded=0;movable=0;resizable=0;rotatable=0;deletable=0;editable=0;locked=1;connectable=0;" parent="CrI34jUcvFCijBm1rNz6-15" edge="1">
          <mxGeometry width="50" height="50" relative="1" as="geometry">
            <mxPoint x="490" y="120" as="sourcePoint" />
            <mxPoint x="940" y="120" as="targetPoint" />
          </mxGeometry>
        </mxCell>
        <mxCell id="CrI34jUcvFCijBm1rNz6-37" value="" style="endArrow=none;dashed=1;html=1;dashPattern=1 3;strokeWidth=2;rounded=0;movable=0;resizable=0;rotatable=0;deletable=0;editable=0;locked=1;connectable=0;" parent="CrI34jUcvFCijBm1rNz6-15" edge="1">
          <mxGeometry width="50" height="50" relative="1" as="geometry">
            <mxPoint x="-5" y="100" as="sourcePoint" />
            <mxPoint x="1115" y="100" as="targetPoint" />
          </mxGeometry>
        </mxCell>
        <mxCell id="CrI34jUcvFCijBm1rNz6-52" value="" style="endArrow=none;dashed=1;html=1;dashPattern=1 3;strokeWidth=2;rounded=0;movable=0;resizable=0;rotatable=0;deletable=0;editable=0;locked=1;connectable=0;" parent="CrI34jUcvFCijBm1rNz6-15" edge="1">
          <mxGeometry width="50" height="50" relative="1" as="geometry">
            <mxPoint x="490" y="200" as="sourcePoint" />
            <mxPoint x="690" y="200" as="targetPoint" />
          </mxGeometry>
        </mxCell>
        <mxCell id="CrI34jUcvFCijBm1rNz6-53" value="" style="endArrow=classic;html=1;rounded=0;" parent="CrI34jUcvFCijBm1rNz6-15" edge="1">
          <mxGeometry width="50" height="50" relative="1" as="geometry">
            <mxPoint x="500" y="200" as="sourcePoint" />
            <mxPoint x="490" y="200" as="targetPoint" />
          </mxGeometry>
        </mxCell>
        <mxCell id="X93EcSzINp0Eo5ylQojm-9" value="&lt;font style=&quot;font-size: 10px;&quot;&gt;Exibe mensagem de limite&lt;/font&gt;" style="text;html=1;align=center;verticalAlign=middle;resizable=0;points=[];autosize=1;strokeColor=none;fillColor=none;movable=0;rotatable=0;deletable=0;editable=0;locked=1;connectable=0;" parent="CrI34jUcvFCijBm1rNz6-15" vertex="1">
          <mxGeometry x="90" y="50" width="140" height="30" as="geometry" />
        </mxCell>
        <mxCell id="X93EcSzINp0Eo5ylQojm-12" value="" style="endArrow=none;dashed=1;html=1;rounded=0;movable=0;resizable=0;rotatable=0;deletable=0;editable=0;locked=1;connectable=0;" parent="CrI34jUcvFCijBm1rNz6-15" edge="1" source="Iz0xuYaKdpiuisNHUyM_-12">
          <mxGeometry width="50" height="50" relative="1" as="geometry">
            <mxPoint x="60" y="540" as="sourcePoint" />
            <mxPoint x="60" y="-110" as="targetPoint" />
            <Array as="points" />
          </mxGeometry>
        </mxCell>
        <mxCell id="X93EcSzINp0Eo5ylQojm-15" value="&lt;font style=&quot;font-size: 10px;&quot;&gt;Questões&amp;nbsp; aleatórias (área 10)&lt;/font&gt;" style="text;html=1;align=center;verticalAlign=middle;resizable=0;points=[];autosize=1;strokeColor=none;fillColor=none;" parent="CrI34jUcvFCijBm1rNz6-15" vertex="1">
          <mxGeometry x="480" y="98" width="160" height="30" as="geometry" />
        </mxCell>
        <mxCell id="CrI34jUcvFCijBm1rNz6-49" value="" style="endArrow=none;dashed=1;html=1;dashPattern=1 3;strokeWidth=2;rounded=0;movable=0;resizable=0;rotatable=0;deletable=0;editable=0;locked=1;connectable=0;" parent="CrI34jUcvFCijBm1rNz6-15" edge="1">
          <mxGeometry width="50" height="50" relative="1" as="geometry">
            <mxPoint x="490" y="150" as="sourcePoint" />
            <mxPoint x="940" y="150" as="targetPoint" />
          </mxGeometry>
        </mxCell>
        <mxCell id="X93EcSzINp0Eo5ylQojm-16" value="&lt;font style=&quot;font-size: 10px;&quot;&gt;Lista questões&lt;/font&gt;" style="edgeLabel;html=1;align=center;verticalAlign=middle;resizable=0;points=[];" parent="CrI34jUcvFCijBm1rNz6-49" vertex="1" connectable="0">
          <mxGeometry x="-0.7378" y="5" relative="1" as="geometry">
            <mxPoint x="-19" y="-7" as="offset" />
          </mxGeometry>
        </mxCell>
        <mxCell id="CrI34jUcvFCijBm1rNz6-51" value="" style="endArrow=classic;html=1;rounded=0;" parent="CrI34jUcvFCijBm1rNz6-15" edge="1">
          <mxGeometry width="50" height="50" relative="1" as="geometry">
            <mxPoint x="500" y="150" as="sourcePoint" />
            <mxPoint x="490" y="150" as="targetPoint" />
          </mxGeometry>
        </mxCell>
        <mxCell id="X93EcSzINp0Eo5ylQojm-17" value="&lt;font style=&quot;font-size: 10px;&quot;&gt;Atualizar contador(Usuário 10)&lt;/font&gt;" style="text;html=1;align=center;verticalAlign=middle;resizable=0;points=[];autosize=1;strokeColor=none;fillColor=none;movable=0;rotatable=0;deletable=0;editable=0;locked=1;connectable=0;" parent="CrI34jUcvFCijBm1rNz6-15" vertex="1">
          <mxGeometry x="480" y="148" width="160" height="30" as="geometry" />
        </mxCell>
        <mxCell id="CrI34jUcvFCijBm1rNz6-47" value="" style="endArrow=classic;html=1;rounded=0;movable=0;resizable=0;rotatable=0;deletable=0;editable=0;locked=1;connectable=0;" parent="CrI34jUcvFCijBm1rNz6-15" edge="1">
          <mxGeometry width="50" height="50" relative="1" as="geometry">
            <mxPoint x="490" y="170" as="sourcePoint" />
            <mxPoint x="690" y="170" as="targetPoint" />
          </mxGeometry>
        </mxCell>
        <mxCell id="CrI34jUcvFCijBm1rNz6-38" value="" style="endArrow=none;dashed=1;html=1;rounded=0;movable=0;resizable=0;rotatable=0;deletable=0;editable=0;locked=1;connectable=0;" parent="CrI34jUcvFCijBm1rNz6-15" edge="1">
          <mxGeometry width="50" height="50" relative="1" as="geometry">
            <mxPoint x="690" y="559" as="sourcePoint" />
            <mxPoint x="690" y="-111" as="targetPoint" />
          </mxGeometry>
        </mxCell>
        <mxCell id="X93EcSzINp0Eo5ylQojm-19" value="&lt;font style=&quot;font-size: 10px;&quot;&gt;Ok&lt;/font&gt;" style="text;html=1;align=center;verticalAlign=middle;resizable=0;points=[];autosize=1;strokeColor=none;fillColor=none;" parent="CrI34jUcvFCijBm1rNz6-15" vertex="1">
          <mxGeometry x="490" y="178" width="40" height="30" as="geometry" />
        </mxCell>
        <mxCell id="X93EcSzINp0Eo5ylQojm-31" value="&lt;font style=&quot;font-size: 10px;&quot;&gt;Exibe botão &quot;Gerar mais questões&quot;&lt;/font&gt;" style="text;html=1;align=center;verticalAlign=middle;resizable=0;points=[];autosize=1;strokeColor=none;fillColor=none;" parent="CrI34jUcvFCijBm1rNz6-15" vertex="1">
          <mxGeometry x="70" y="488" width="180" height="30" as="geometry" />
        </mxCell>
        <mxCell id="X93EcSzINp0Eo5ylQojm-10" value="&lt;font style=&quot;font-size: 10px;&quot;&gt;Exibir mensagem (Mensagem limite atingido)&lt;/font&gt;" style="text;html=1;align=center;verticalAlign=middle;resizable=0;points=[];autosize=1;strokeColor=none;fillColor=none;movable=0;rotatable=0;deletable=0;editable=0;locked=1;connectable=0;" parent="CrI34jUcvFCijBm1rNz6-15" vertex="1">
          <mxGeometry x="270" y="30" width="220" height="30" as="geometry" />
        </mxCell>
        <mxCell id="Iz0xuYaKdpiuisNHUyM_-8" value="" style="rounded=0;whiteSpace=wrap;html=1;movable=0;resizable=0;rotatable=0;deletable=0;editable=0;locked=1;connectable=0;" vertex="1" parent="CrI34jUcvFCijBm1rNz6-15">
          <mxGeometry x="480" y="30" width="20" height="40" as="geometry" />
        </mxCell>
        <mxCell id="Iz0xuYaKdpiuisNHUyM_-12" value="" style="rounded=0;whiteSpace=wrap;html=1;" vertex="1" parent="CrI34jUcvFCijBm1rNz6-15">
          <mxGeometry x="50" y="300" width="20" height="30" as="geometry" />
        </mxCell>
        <mxCell id="Iz0xuYaKdpiuisNHUyM_-6" value="" style="rounded=0;whiteSpace=wrap;html=1;movable=0;resizable=0;rotatable=0;deletable=0;editable=0;locked=1;connectable=0;" vertex="1" parent="CrI34jUcvFCijBm1rNz6-15">
          <mxGeometry x="255" y="58" width="20" height="32" as="geometry" />
        </mxCell>
        <mxCell id="CrI34jUcvFCijBm1rNz6-26" value="&lt;span style=&quot;font-weight: 400;&quot;&gt;loop&lt;/span&gt;" style="swimlane;whiteSpace=wrap;html=1;movable=0;resizable=0;rotatable=0;deletable=0;editable=0;locked=1;connectable=0;" parent="CrI34jUcvFCijBm1rNz6-15" vertex="1">
          <mxGeometry x="10" y="218" width="570" height="270" as="geometry" />
        </mxCell>
        <mxCell id="CrI34jUcvFCijBm1rNz6-27" value="" style="endArrow=classic;html=1;rounded=0;" parent="CrI34jUcvFCijBm1rNz6-26" edge="1">
          <mxGeometry width="50" height="50" relative="1" as="geometry">
            <mxPoint x="250" y="70" as="sourcePoint" />
            <mxPoint x="40" y="70" as="targetPoint" />
            <Array as="points">
              <mxPoint x="149" y="70" />
            </Array>
          </mxGeometry>
        </mxCell>
        <mxCell id="CrI34jUcvFCijBm1rNz6-29" value="" style="endArrow=classic;html=1;rounded=0;" parent="CrI34jUcvFCijBm1rNz6-26" edge="1">
          <mxGeometry width="50" height="50" relative="1" as="geometry">
            <mxPoint x="40" y="100" as="sourcePoint" />
            <mxPoint x="250" y="100" as="targetPoint" />
          </mxGeometry>
        </mxCell>
        <mxCell id="X93EcSzINp0Eo5ylQojm-22" value="&lt;font style=&quot;font-size: 10px;&quot;&gt;Responde questões&lt;/font&gt;" style="edgeLabel;html=1;align=center;verticalAlign=middle;resizable=0;points=[];" parent="CrI34jUcvFCijBm1rNz6-29" vertex="1" connectable="0">
          <mxGeometry x="-0.3684" y="4" relative="1" as="geometry">
            <mxPoint x="10" y="-6" as="offset" />
          </mxGeometry>
        </mxCell>
        <mxCell id="CrI34jUcvFCijBm1rNz6-30" value="" style="endArrow=classic;html=1;rounded=0;exitX=0.038;exitY=0.7;exitDx=0;exitDy=0;exitPerimeter=0;" parent="CrI34jUcvFCijBm1rNz6-26" source="X93EcSzINp0Eo5ylQojm-26" edge="1">
          <mxGeometry width="50" height="50" relative="1" as="geometry">
            <mxPoint x="60" y="250" as="sourcePoint" />
            <mxPoint x="250" y="250" as="targetPoint" />
          </mxGeometry>
        </mxCell>
        <mxCell id="CrI34jUcvFCijBm1rNz6-33" value="" style="endArrow=classic;html=1;rounded=0;" parent="CrI34jUcvFCijBm1rNz6-26" edge="1">
          <mxGeometry width="50" height="50" relative="1" as="geometry">
            <mxPoint x="250" y="258" as="sourcePoint" />
            <mxPoint x="470" y="258" as="targetPoint" />
          </mxGeometry>
        </mxCell>
        <mxCell id="CrI34jUcvFCijBm1rNz6-40" value="Processamento da resposta" style="swimlane;whiteSpace=wrap;html=1;startSize=23;" parent="CrI34jUcvFCijBm1rNz6-26" vertex="1">
          <mxGeometry x="170" y="110" width="230" height="125" as="geometry" />
        </mxCell>
        <mxCell id="CrI34jUcvFCijBm1rNz6-43" value="" style="endArrow=classic;html=1;rounded=0;" parent="CrI34jUcvFCijBm1rNz6-40" edge="1">
          <mxGeometry width="50" height="50" relative="1" as="geometry">
            <mxPoint x="80" y="95" as="sourcePoint" />
            <mxPoint x="80" y="115" as="targetPoint" />
            <Array as="points">
              <mxPoint x="140" y="95" />
              <mxPoint x="140" y="115" />
            </Array>
          </mxGeometry>
        </mxCell>
        <mxCell id="CrI34jUcvFCijBm1rNz6-42" value="" style="endArrow=classic;html=1;rounded=0;" parent="CrI34jUcvFCijBm1rNz6-40" edge="1">
          <mxGeometry width="50" height="50" relative="1" as="geometry">
            <mxPoint x="80" y="45" as="sourcePoint" />
            <mxPoint x="80" y="65" as="targetPoint" />
            <Array as="points">
              <mxPoint x="140" y="45" />
              <mxPoint x="140" y="65" />
            </Array>
          </mxGeometry>
        </mxCell>
        <mxCell id="X93EcSzINp0Eo5ylQojm-24" value="&lt;font style=&quot;font-size: 10px;&quot;&gt;Usuário respondeu()&lt;/font&gt;" style="text;html=1;align=center;verticalAlign=middle;resizable=0;points=[];autosize=1;strokeColor=none;fillColor=none;" parent="CrI34jUcvFCijBm1rNz6-40" vertex="1">
          <mxGeometry x="80" y="18" width="110" height="30" as="geometry" />
        </mxCell>
        <mxCell id="X93EcSzINp0Eo5ylQojm-25" value="&lt;font style=&quot;font-size: 10px;&quot;&gt;Habilitar botões()&lt;/font&gt;" style="text;html=1;align=center;verticalAlign=middle;resizable=0;points=[];autosize=1;strokeColor=none;fillColor=none;" parent="CrI34jUcvFCijBm1rNz6-40" vertex="1">
          <mxGeometry x="80" y="68" width="100" height="30" as="geometry" />
        </mxCell>
        <mxCell id="CrI34jUcvFCijBm1rNz6-44" value="" style="endArrow=classic;html=1;rounded=0;" parent="CrI34jUcvFCijBm1rNz6-26" edge="1">
          <mxGeometry width="50" height="50" relative="1" as="geometry">
            <mxPoint x="470" y="48" as="sourcePoint" />
            <mxPoint x="250" y="48" as="targetPoint" />
            <Array as="points">
              <mxPoint x="380" y="48" />
            </Array>
          </mxGeometry>
        </mxCell>
        <mxCell id="X93EcSzINp0Eo5ylQojm-20" value="&lt;font style=&quot;font-size: 10px;&quot;&gt;[Para cada uma das 10 questões]&lt;/font&gt;" style="text;html=1;align=center;verticalAlign=middle;resizable=0;points=[];autosize=1;strokeColor=none;fillColor=none;" parent="CrI34jUcvFCijBm1rNz6-26" vertex="1">
          <mxGeometry x="60" y="18" width="170" height="30" as="geometry" />
        </mxCell>
        <mxCell id="X93EcSzINp0Eo5ylQojm-21" value="&lt;font style=&quot;font-size: 10px;&quot;&gt;Exibe questões e alternativas&lt;/font&gt;" style="text;html=1;align=center;verticalAlign=middle;resizable=0;points=[];autosize=1;strokeColor=none;fillColor=none;" parent="CrI34jUcvFCijBm1rNz6-26" vertex="1">
          <mxGeometry x="60" y="48" width="150" height="30" as="geometry" />
        </mxCell>
        <mxCell id="X93EcSzINp0Eo5ylQojm-26" value="&lt;font style=&quot;font-size: 10px;&quot;&gt;Clica &quot;Próxima questão&quot;&lt;/font&gt;" style="text;html=1;align=center;verticalAlign=middle;resizable=0;points=[];autosize=1;strokeColor=none;fillColor=none;" parent="CrI34jUcvFCijBm1rNz6-26" vertex="1">
          <mxGeometry x="40" y="228" width="130" height="30" as="geometry" />
        </mxCell>
        <mxCell id="Iz0xuYaKdpiuisNHUyM_-18" value="" style="endArrow=none;dashed=1;html=1;rounded=0;" edge="1" parent="CrI34jUcvFCijBm1rNz6-26">
          <mxGeometry width="50" height="50" relative="1" as="geometry">
            <mxPoint x="40" y="310" as="sourcePoint" />
            <mxPoint x="40" y="120" as="targetPoint" />
            <Array as="points" />
          </mxGeometry>
        </mxCell>
        <mxCell id="CrI34jUcvFCijBm1rNz6-31" value="" style="endArrow=classic;html=1;rounded=0;movable=0;resizable=0;rotatable=0;deletable=0;editable=0;locked=1;connectable=0;" parent="1" edge="1">
          <mxGeometry width="50" height="50" relative="1" as="geometry">
            <mxPoint x="-2030" y="170" as="sourcePoint" />
            <mxPoint x="-1810" y="170" as="targetPoint" />
          </mxGeometry>
        </mxCell>
        <mxCell id="X93EcSzINp0Eo5ylQojm-4" value="Solicitar questões (área)" style="edgeLabel;html=1;align=center;verticalAlign=middle;resizable=0;points=[];movable=0;rotatable=0;deletable=0;editable=0;locked=1;connectable=0;" parent="CrI34jUcvFCijBm1rNz6-31" vertex="1" connectable="0">
          <mxGeometry x="-0.2222" y="4" relative="1" as="geometry">
            <mxPoint x="20" y="-6" as="offset" />
          </mxGeometry>
        </mxCell>
        <mxCell id="CrI34jUcvFCijBm1rNz6-32" value="" style="endArrow=none;dashed=1;html=1;rounded=0;movable=0;resizable=0;rotatable=0;deletable=0;editable=0;locked=1;connectable=0;" parent="1" edge="1">
          <mxGeometry width="50" height="50" relative="1" as="geometry">
            <mxPoint x="-1810" y="740" as="sourcePoint" />
            <mxPoint x="-1810" y="70" as="targetPoint" />
          </mxGeometry>
        </mxCell>
        <mxCell id="CrI34jUcvFCijBm1rNz6-39" value="" style="endArrow=none;dashed=1;html=1;rounded=0;movable=0;resizable=0;rotatable=0;deletable=0;editable=0;locked=1;connectable=0;" parent="1" edge="1">
          <mxGeometry width="50" height="50" relative="1" as="geometry">
            <mxPoint x="-1360" y="748" as="sourcePoint" />
            <mxPoint x="-1360" y="78" as="targetPoint" />
          </mxGeometry>
        </mxCell>
        <mxCell id="CrI34jUcvFCijBm1rNz6-54" value="" style="endArrow=classic;html=1;rounded=0;movable=0;resizable=0;rotatable=0;deletable=0;editable=0;locked=1;connectable=0;" parent="1" edge="1">
          <mxGeometry width="50" height="50" relative="1" as="geometry">
            <mxPoint x="-1810" y="150" as="sourcePoint" />
            <mxPoint x="-1610" y="150" as="targetPoint" />
          </mxGeometry>
        </mxCell>
        <mxCell id="CrI34jUcvFCijBm1rNz6-55" value="" style="endArrow=none;dashed=1;html=1;dashPattern=1 3;strokeWidth=2;rounded=0;movable=0;resizable=0;rotatable=0;deletable=0;editable=0;locked=1;connectable=0;" parent="1" edge="1">
          <mxGeometry width="50" height="50" relative="1" as="geometry">
            <mxPoint x="-1800" y="180" as="sourcePoint" />
            <mxPoint x="-1600" y="180" as="targetPoint" />
          </mxGeometry>
        </mxCell>
        <mxCell id="X93EcSzINp0Eo5ylQojm-6" value="Status limite" style="edgeLabel;html=1;align=center;verticalAlign=middle;resizable=0;points=[];movable=0;rotatable=0;deletable=0;editable=0;locked=1;connectable=0;" parent="CrI34jUcvFCijBm1rNz6-55" vertex="1" connectable="0">
          <mxGeometry x="-0.23" y="5" relative="1" as="geometry">
            <mxPoint x="3" y="-5" as="offset" />
          </mxGeometry>
        </mxCell>
        <mxCell id="CrI34jUcvFCijBm1rNz6-56" value="" style="endArrow=classic;html=1;rounded=0;" parent="1" edge="1">
          <mxGeometry width="50" height="50" relative="1" as="geometry">
            <mxPoint x="-1800" y="180" as="sourcePoint" />
            <mxPoint x="-1810" y="180" as="targetPoint" />
          </mxGeometry>
        </mxCell>
        <mxCell id="CrI34jUcvFCijBm1rNz6-57" value=":TelaQuestõesUI" style="rounded=0;whiteSpace=wrap;html=1;fillColor=#9E9E9E;movable=0;resizable=0;rotatable=0;deletable=0;editable=0;locked=1;connectable=0;" parent="1" vertex="1">
          <mxGeometry x="-2080" y="30" width="120" height="30" as="geometry" />
        </mxCell>
        <mxCell id="CrI34jUcvFCijBm1rNz6-58" value=":GerenciadorQuestões" style="rounded=0;whiteSpace=wrap;html=1;fillColor=#9E9E9E;movable=0;resizable=0;rotatable=0;deletable=0;editable=0;locked=1;connectable=0;" parent="1" vertex="1">
          <mxGeometry x="-1880" y="30" width="134" height="30" as="geometry" />
        </mxCell>
        <mxCell id="CrI34jUcvFCijBm1rNz6-59" value=":ContadorLImiteDiário" style="rounded=0;whiteSpace=wrap;html=1;fillColor=#9E9E9E;movable=0;resizable=0;rotatable=0;deletable=0;editable=0;locked=1;connectable=0;" parent="1" vertex="1">
          <mxGeometry x="-1670" y="30" width="120" height="30" as="geometry" />
        </mxCell>
        <mxCell id="CrI34jUcvFCijBm1rNz6-60" value=":RepositórioQuestões" style="rounded=0;whiteSpace=wrap;html=1;fillColor=#9E9E9E;movable=0;resizable=0;rotatable=0;deletable=0;editable=0;locked=1;connectable=0;" parent="1" vertex="1">
          <mxGeometry x="-1430" y="30" width="120" height="30" as="geometry" />
        </mxCell>
        <mxCell id="CrI34jUcvFCijBm1rNz6-66" value="" style="shape=link;html=1;rounded=0;movable=0;resizable=0;rotatable=0;deletable=0;editable=0;locked=1;connectable=0;" parent="1" target="CrI34jUcvFCijBm1rNz6-65" edge="1">
          <mxGeometry width="100" relative="1" as="geometry">
            <mxPoint x="-2330" y="115" as="sourcePoint" />
            <mxPoint x="-1170" y="120" as="targetPoint" />
            <Array as="points">
              <mxPoint x="-2050" y="115" />
            </Array>
          </mxGeometry>
        </mxCell>
        <mxCell id="CrI34jUcvFCijBm1rNz6-65" value="Solicitação de Verificação" style="rounded=0;whiteSpace=wrap;html=1;fillColor=#E3E3E3;movable=0;resizable=0;rotatable=0;deletable=0;editable=0;locked=1;connectable=0;" parent="1" vertex="1">
          <mxGeometry x="-1960" y="100" width="170" height="30" as="geometry" />
        </mxCell>
        <mxCell id="X93EcSzINp0Eo5ylQojm-3" value="&lt;font style=&quot;font-size: 10px;&quot;&gt;Solicita listagem de questões (área)&lt;/font&gt;" style="text;html=1;align=center;verticalAlign=middle;resizable=0;points=[];autosize=1;strokeColor=none;fillColor=none;movable=0;rotatable=0;deletable=0;editable=0;locked=1;connectable=0;" parent="1" vertex="1">
          <mxGeometry x="-2240" y="120" width="180" height="30" as="geometry" />
        </mxCell>
        <mxCell id="X93EcSzINp0Eo5ylQojm-5" value="Verificar limite (Usuário)" style="text;html=1;align=center;verticalAlign=middle;resizable=0;points=[];autosize=1;strokeColor=none;fillColor=none;movable=0;rotatable=0;deletable=0;editable=0;locked=1;connectable=0;" parent="1" vertex="1">
          <mxGeometry x="-1790" y="128" width="150" height="30" as="geometry" />
        </mxCell>
        <mxCell id="X93EcSzINp0Eo5ylQojm-8" value="&lt;span style=&quot;font-size: 10px;&quot;&gt;[Limite atingido]&lt;/span&gt;" style="text;html=1;align=center;verticalAlign=middle;resizable=0;points=[];autosize=1;strokeColor=none;fillColor=none;movable=0;rotatable=0;deletable=0;editable=0;locked=1;connectable=0;" parent="1" vertex="1">
          <mxGeometry x="-2205" y="208" width="90" height="30" as="geometry" />
        </mxCell>
        <mxCell id="X93EcSzINp0Eo5ylQojm-11" value="[&lt;font style=&quot;font-size: 10px;&quot;&gt;Limite nãp atendido]&lt;/font&gt;" style="text;html=1;align=center;verticalAlign=middle;resizable=0;points=[];autosize=1;strokeColor=none;fillColor=none;" parent="1" vertex="1">
          <mxGeometry x="-2310" y="288" width="120" height="30" as="geometry" />
        </mxCell>
        <mxCell id="X93EcSzINp0Eo5ylQojm-23" value="&lt;font style=&quot;font-size: 10px;&quot;&gt;Exibir próxima questão&lt;/font&gt;" style="text;html=1;align=center;verticalAlign=middle;resizable=0;points=[];autosize=1;strokeColor=none;fillColor=none;movable=0;rotatable=0;deletable=0;editable=0;locked=1;connectable=0;" parent="1" vertex="1">
          <mxGeometry x="-2025" y="428" width="130" height="30" as="geometry" />
        </mxCell>
        <mxCell id="X93EcSzINp0Eo5ylQojm-27" value="&lt;font style=&quot;font-size: 10px;&quot;&gt;Solicitar próxima()&lt;/font&gt;" style="text;html=1;align=center;verticalAlign=middle;resizable=0;points=[];autosize=1;strokeColor=none;fillColor=none;" parent="1" vertex="1">
          <mxGeometry x="-2000" y="638" width="100" height="30" as="geometry" />
        </mxCell>
        <mxCell id="X93EcSzINp0Eo5ylQojm-30" value="&lt;font style=&quot;font-size: 10px;&quot;&gt;Exibir botão gerar mais()&lt;/font&gt;" style="text;html=1;align=center;verticalAlign=middle;resizable=0;points=[];autosize=1;strokeColor=none;fillColor=none;" parent="1" vertex="1">
          <mxGeometry x="-2025" y="668" width="130" height="30" as="geometry" />
        </mxCell>
        <mxCell id="cDGz0aQqu49zxlpUWyzE-1" value="" style="shape=link;html=1;rounded=0;" parent="1" edge="1">
          <mxGeometry width="100" relative="1" as="geometry">
            <mxPoint x="-1790" y="114.17" as="sourcePoint" />
            <mxPoint x="-1170" y="114" as="targetPoint" />
            <Array as="points">
              <mxPoint x="-1510" y="114.17" />
            </Array>
          </mxGeometry>
        </mxCell>
        <mxCell id="cDGz0aQqu49zxlpUWyzE-2" value="" style="shape=link;html=1;rounded=0;movable=0;resizable=0;rotatable=0;deletable=0;editable=0;locked=1;connectable=0;" parent="1" edge="1">
          <mxGeometry width="100" relative="1" as="geometry">
            <mxPoint x="-1790" y="114.46000000000001" as="sourcePoint" />
            <mxPoint x="-1170" y="114.29" as="targetPoint" />
            <Array as="points">
              <mxPoint x="-1510" y="114.46000000000001" />
            </Array>
          </mxGeometry>
        </mxCell>
        <mxCell id="Iz0xuYaKdpiuisNHUyM_-5" value="" style="endArrow=classic;html=1;rounded=0;" edge="1" parent="1" target="Iz0xuYaKdpiuisNHUyM_-4">
          <mxGeometry width="50" height="50" relative="1" as="geometry">
            <mxPoint x="-2240" y="158" as="sourcePoint" />
            <mxPoint x="-2030" y="158" as="targetPoint" />
          </mxGeometry>
        </mxCell>
        <mxCell id="Iz0xuYaKdpiuisNHUyM_-4" value="" style="rounded=0;whiteSpace=wrap;html=1;movable=0;resizable=0;rotatable=0;deletable=0;editable=0;locked=1;connectable=0;" vertex="1" parent="1">
          <mxGeometry x="-2250" y="120" width="20" height="60" as="geometry" />
        </mxCell>
        <mxCell id="Iz0xuYaKdpiuisNHUyM_-7" value="" style="endArrow=none;dashed=1;html=1;rounded=0;movable=0;resizable=0;rotatable=0;deletable=0;editable=0;locked=1;connectable=0;" edge="1" parent="1">
          <mxGeometry width="50" height="50" relative="1" as="geometry">
            <mxPoint x="-2030" y="740" as="sourcePoint" />
            <mxPoint x="-2035" y="60" as="targetPoint" />
          </mxGeometry>
        </mxCell>
        <mxCell id="Iz0xuYaKdpiuisNHUyM_-10" value="" style="rounded=0;whiteSpace=wrap;html=1;movable=0;resizable=0;rotatable=0;deletable=0;editable=0;locked=1;connectable=0;" vertex="1" parent="1">
          <mxGeometry x="-1820" y="433" width="20" height="37" as="geometry" />
        </mxCell>
        <mxCell id="Iz0xuYaKdpiuisNHUyM_-19" value="opt" style="shape=umlFrame;whiteSpace=wrap;html=1;pointerEvents=0;" vertex="1" parent="1">
          <mxGeometry x="-1755" y="880" width="290" height="97" as="geometry" />
        </mxCell>
      </root>
    </mxGraphModel>
  </diagram>
  <diagram id="JWP1-33PHTxnKlrN6OxC" name="Página-2">
    <mxGraphModel dx="2363" dy="1377" grid="0" gridSize="10" guides="1" tooltips="1" connect="1" arrows="1" fold="1" page="0" pageScale="1" pageWidth="1169" pageHeight="827" math="0" shadow="0">
      <root>
        <mxCell id="0" />
        <mxCell id="1" parent="0" />
        <mxCell id="pvwoZCbLIYxk1e_d2Ucy-1" value="Usuário&lt;div&gt;&lt;br&gt;&lt;/div&gt;" style="shape=umlActor;verticalLabelPosition=bottom;verticalAlign=top;outlineConnect=0;html=1;movable=0;resizable=0;rotatable=0;deletable=0;editable=0;locked=1;connectable=0;" vertex="1" parent="1">
          <mxGeometry x="77" y="135" width="30" height="60" as="geometry" />
        </mxCell>
        <mxCell id="pvwoZCbLIYxk1e_d2Ucy-2" value="" style="endArrow=classic;html=1;rounded=0;movable=0;resizable=0;rotatable=0;deletable=0;editable=0;locked=1;connectable=0;" edge="1" parent="1" source="pvwoZCbLIYxk1e_d2Ucy-67">
          <mxGeometry width="50" height="50" relative="1" as="geometry">
            <mxPoint x="92" y="283" as="sourcePoint" />
            <mxPoint x="292" y="275" as="targetPoint" />
          </mxGeometry>
        </mxCell>
        <mxCell id="pvwoZCbLIYxk1e_d2Ucy-3" value="&lt;span style=&quot;font-weight: normal;&quot;&gt;alt&lt;/span&gt;" style="swimlane;whiteSpace=wrap;html=1;startSize=23;" vertex="1" parent="1">
          <mxGeometry x="32" y="315" width="1110" height="530" as="geometry">
            <mxRectangle x="-1140" y="190" width="50" height="30" as="alternateBounds" />
          </mxGeometry>
        </mxCell>
        <mxCell id="pvwoZCbLIYxk1e_d2Ucy-4" value="" style="endArrow=classic;html=1;rounded=0;" edge="1" parent="pvwoZCbLIYxk1e_d2Ucy-3" source="pvwoZCbLIYxk1e_d2Ucy-26">
          <mxGeometry width="50" height="50" relative="1" as="geometry">
            <mxPoint x="270" y="70" as="sourcePoint" />
            <mxPoint x="60" y="74" as="targetPoint" />
          </mxGeometry>
        </mxCell>
        <mxCell id="pvwoZCbLIYxk1e_d2Ucy-5" value="" style="endArrow=classic;html=1;rounded=0;" edge="1" parent="pvwoZCbLIYxk1e_d2Ucy-3">
          <mxGeometry width="50" height="50" relative="1" as="geometry">
            <mxPoint x="490" y="500" as="sourcePoint" />
            <mxPoint x="270" y="500" as="targetPoint" />
            <Array as="points">
              <mxPoint x="390" y="500" />
            </Array>
          </mxGeometry>
        </mxCell>
        <mxCell id="pvwoZCbLIYxk1e_d2Ucy-6" value="" style="endArrow=classic;html=1;rounded=0;" edge="1" parent="pvwoZCbLIYxk1e_d2Ucy-3">
          <mxGeometry width="50" height="50" relative="1" as="geometry">
            <mxPoint x="270" y="510" as="sourcePoint" />
            <mxPoint x="60" y="510" as="targetPoint" />
            <Array as="points">
              <mxPoint x="170" y="510" />
            </Array>
          </mxGeometry>
        </mxCell>
        <mxCell id="pvwoZCbLIYxk1e_d2Ucy-7" value="" style="endArrow=classic;html=1;rounded=0;entryX=1;entryY=0.25;entryDx=0;entryDy=0;" edge="1" parent="pvwoZCbLIYxk1e_d2Ucy-3">
          <mxGeometry width="50" height="50" relative="1" as="geometry">
            <mxPoint x="488" y="53" as="sourcePoint" />
            <mxPoint x="272.5" y="53" as="targetPoint" />
          </mxGeometry>
        </mxCell>
        <mxCell id="pvwoZCbLIYxk1e_d2Ucy-8" value="" style="endArrow=classic;html=1;rounded=0;movable=0;resizable=0;rotatable=0;deletable=0;editable=0;locked=1;connectable=0;" edge="1" parent="pvwoZCbLIYxk1e_d2Ucy-3">
          <mxGeometry width="50" height="50" relative="1" as="geometry">
            <mxPoint x="490" y="120" as="sourcePoint" />
            <mxPoint x="940" y="120" as="targetPoint" />
          </mxGeometry>
        </mxCell>
        <mxCell id="pvwoZCbLIYxk1e_d2Ucy-9" value="" style="endArrow=none;dashed=1;html=1;dashPattern=1 3;strokeWidth=2;rounded=0;movable=0;resizable=0;rotatable=0;deletable=0;editable=0;locked=1;connectable=0;" edge="1" parent="pvwoZCbLIYxk1e_d2Ucy-3">
          <mxGeometry width="50" height="50" relative="1" as="geometry">
            <mxPoint x="-5" y="100" as="sourcePoint" />
            <mxPoint x="1115" y="100" as="targetPoint" />
          </mxGeometry>
        </mxCell>
        <mxCell id="pvwoZCbLIYxk1e_d2Ucy-10" value="" style="endArrow=none;dashed=1;html=1;dashPattern=1 3;strokeWidth=2;rounded=0;movable=0;resizable=0;rotatable=0;deletable=0;editable=0;locked=1;connectable=0;" edge="1" parent="pvwoZCbLIYxk1e_d2Ucy-3">
          <mxGeometry width="50" height="50" relative="1" as="geometry">
            <mxPoint x="490" y="200" as="sourcePoint" />
            <mxPoint x="690" y="200" as="targetPoint" />
          </mxGeometry>
        </mxCell>
        <mxCell id="pvwoZCbLIYxk1e_d2Ucy-11" value="" style="endArrow=classic;html=1;rounded=0;" edge="1" parent="pvwoZCbLIYxk1e_d2Ucy-3">
          <mxGeometry width="50" height="50" relative="1" as="geometry">
            <mxPoint x="500" y="200" as="sourcePoint" />
            <mxPoint x="490" y="200" as="targetPoint" />
          </mxGeometry>
        </mxCell>
        <mxCell id="pvwoZCbLIYxk1e_d2Ucy-12" value="&lt;font style=&quot;font-size: 10px;&quot;&gt;Exibe mensagem de limite&lt;/font&gt;" style="text;html=1;align=center;verticalAlign=middle;resizable=0;points=[];autosize=1;strokeColor=none;fillColor=none;movable=0;rotatable=0;deletable=0;editable=0;locked=1;connectable=0;" vertex="1" parent="pvwoZCbLIYxk1e_d2Ucy-3">
          <mxGeometry x="90" y="50" width="140" height="30" as="geometry" />
        </mxCell>
        <mxCell id="pvwoZCbLIYxk1e_d2Ucy-13" value="" style="endArrow=none;dashed=1;html=1;rounded=0;movable=0;resizable=0;rotatable=0;deletable=0;editable=0;locked=1;connectable=0;" edge="1" parent="pvwoZCbLIYxk1e_d2Ucy-3" source="pvwoZCbLIYxk1e_d2Ucy-25">
          <mxGeometry width="50" height="50" relative="1" as="geometry">
            <mxPoint x="60" y="540" as="sourcePoint" />
            <mxPoint x="60" y="-110" as="targetPoint" />
            <Array as="points" />
          </mxGeometry>
        </mxCell>
        <mxCell id="pvwoZCbLIYxk1e_d2Ucy-14" value="&lt;font style=&quot;font-size: 10px;&quot;&gt;Questões&amp;nbsp; aleatórias (área 10)&lt;/font&gt;" style="text;html=1;align=center;verticalAlign=middle;resizable=0;points=[];autosize=1;strokeColor=none;fillColor=none;" vertex="1" parent="pvwoZCbLIYxk1e_d2Ucy-3">
          <mxGeometry x="480" y="98" width="160" height="30" as="geometry" />
        </mxCell>
        <mxCell id="pvwoZCbLIYxk1e_d2Ucy-15" value="" style="endArrow=none;dashed=1;html=1;dashPattern=1 3;strokeWidth=2;rounded=0;movable=0;resizable=0;rotatable=0;deletable=0;editable=0;locked=1;connectable=0;" edge="1" parent="pvwoZCbLIYxk1e_d2Ucy-3">
          <mxGeometry width="50" height="50" relative="1" as="geometry">
            <mxPoint x="490" y="150" as="sourcePoint" />
            <mxPoint x="940" y="150" as="targetPoint" />
          </mxGeometry>
        </mxCell>
        <mxCell id="pvwoZCbLIYxk1e_d2Ucy-16" value="&lt;font style=&quot;font-size: 10px;&quot;&gt;Lista questões&lt;/font&gt;" style="edgeLabel;html=1;align=center;verticalAlign=middle;resizable=0;points=[];" vertex="1" connectable="0" parent="pvwoZCbLIYxk1e_d2Ucy-15">
          <mxGeometry x="-0.7378" y="5" relative="1" as="geometry">
            <mxPoint x="-19" y="-7" as="offset" />
          </mxGeometry>
        </mxCell>
        <mxCell id="pvwoZCbLIYxk1e_d2Ucy-17" value="" style="endArrow=classic;html=1;rounded=0;" edge="1" parent="pvwoZCbLIYxk1e_d2Ucy-3">
          <mxGeometry width="50" height="50" relative="1" as="geometry">
            <mxPoint x="500" y="150" as="sourcePoint" />
            <mxPoint x="490" y="150" as="targetPoint" />
          </mxGeometry>
        </mxCell>
        <mxCell id="pvwoZCbLIYxk1e_d2Ucy-18" value="&lt;font style=&quot;font-size: 10px;&quot;&gt;Atualizar contador(Usuário 10)&lt;/font&gt;" style="text;html=1;align=center;verticalAlign=middle;resizable=0;points=[];autosize=1;strokeColor=none;fillColor=none;movable=0;rotatable=0;deletable=0;editable=0;locked=1;connectable=0;" vertex="1" parent="pvwoZCbLIYxk1e_d2Ucy-3">
          <mxGeometry x="480" y="148" width="160" height="30" as="geometry" />
        </mxCell>
        <mxCell id="pvwoZCbLIYxk1e_d2Ucy-19" value="" style="endArrow=classic;html=1;rounded=0;movable=0;resizable=0;rotatable=0;deletable=0;editable=0;locked=1;connectable=0;" edge="1" parent="pvwoZCbLIYxk1e_d2Ucy-3">
          <mxGeometry width="50" height="50" relative="1" as="geometry">
            <mxPoint x="490" y="170" as="sourcePoint" />
            <mxPoint x="690" y="170" as="targetPoint" />
          </mxGeometry>
        </mxCell>
        <mxCell id="pvwoZCbLIYxk1e_d2Ucy-20" value="" style="endArrow=none;dashed=1;html=1;rounded=0;movable=0;resizable=0;rotatable=0;deletable=0;editable=0;locked=1;connectable=0;" edge="1" parent="pvwoZCbLIYxk1e_d2Ucy-3">
          <mxGeometry width="50" height="50" relative="1" as="geometry">
            <mxPoint x="690" y="559" as="sourcePoint" />
            <mxPoint x="690" y="-111" as="targetPoint" />
          </mxGeometry>
        </mxCell>
        <mxCell id="pvwoZCbLIYxk1e_d2Ucy-21" value="&lt;font style=&quot;font-size: 10px;&quot;&gt;Ok&lt;/font&gt;" style="text;html=1;align=center;verticalAlign=middle;resizable=0;points=[];autosize=1;strokeColor=none;fillColor=none;" vertex="1" parent="pvwoZCbLIYxk1e_d2Ucy-3">
          <mxGeometry x="490" y="178" width="40" height="30" as="geometry" />
        </mxCell>
        <mxCell id="pvwoZCbLIYxk1e_d2Ucy-22" value="&lt;font style=&quot;font-size: 10px;&quot;&gt;Exibe botão &quot;Gerar mais questões&quot;&lt;/font&gt;" style="text;html=1;align=center;verticalAlign=middle;resizable=0;points=[];autosize=1;strokeColor=none;fillColor=none;" vertex="1" parent="pvwoZCbLIYxk1e_d2Ucy-3">
          <mxGeometry x="70" y="488" width="180" height="30" as="geometry" />
        </mxCell>
        <mxCell id="pvwoZCbLIYxk1e_d2Ucy-23" value="&lt;font style=&quot;font-size: 10px;&quot;&gt;Exibir mensagem (Mensagem limite atingido)&lt;/font&gt;" style="text;html=1;align=center;verticalAlign=middle;resizable=0;points=[];autosize=1;strokeColor=none;fillColor=none;movable=0;rotatable=0;deletable=0;editable=0;locked=1;connectable=0;" vertex="1" parent="pvwoZCbLIYxk1e_d2Ucy-3">
          <mxGeometry x="270" y="30" width="220" height="30" as="geometry" />
        </mxCell>
        <mxCell id="pvwoZCbLIYxk1e_d2Ucy-24" value="" style="rounded=0;whiteSpace=wrap;html=1;movable=0;resizable=0;rotatable=0;deletable=0;editable=0;locked=1;connectable=0;" vertex="1" parent="pvwoZCbLIYxk1e_d2Ucy-3">
          <mxGeometry x="480" y="30" width="20" height="40" as="geometry" />
        </mxCell>
        <mxCell id="pvwoZCbLIYxk1e_d2Ucy-25" value="" style="rounded=0;whiteSpace=wrap;html=1;" vertex="1" parent="pvwoZCbLIYxk1e_d2Ucy-3">
          <mxGeometry x="50" y="300" width="20" height="30" as="geometry" />
        </mxCell>
        <mxCell id="pvwoZCbLIYxk1e_d2Ucy-26" value="" style="rounded=0;whiteSpace=wrap;html=1;movable=0;resizable=0;rotatable=0;deletable=0;editable=0;locked=1;connectable=0;" vertex="1" parent="pvwoZCbLIYxk1e_d2Ucy-3">
          <mxGeometry x="255" y="58" width="20" height="32" as="geometry" />
        </mxCell>
        <mxCell id="pvwoZCbLIYxk1e_d2Ucy-27" value="&lt;span style=&quot;font-weight: 400;&quot;&gt;loop&lt;/span&gt;" style="swimlane;whiteSpace=wrap;html=1;movable=0;resizable=0;rotatable=0;deletable=0;editable=0;locked=1;connectable=0;" vertex="1" parent="pvwoZCbLIYxk1e_d2Ucy-3">
          <mxGeometry x="10" y="218" width="570" height="270" as="geometry" />
        </mxCell>
        <mxCell id="pvwoZCbLIYxk1e_d2Ucy-28" value="" style="endArrow=classic;html=1;rounded=0;" edge="1" parent="pvwoZCbLIYxk1e_d2Ucy-27">
          <mxGeometry width="50" height="50" relative="1" as="geometry">
            <mxPoint x="250" y="70" as="sourcePoint" />
            <mxPoint x="40" y="70" as="targetPoint" />
            <Array as="points">
              <mxPoint x="149" y="70" />
            </Array>
          </mxGeometry>
        </mxCell>
        <mxCell id="pvwoZCbLIYxk1e_d2Ucy-29" value="" style="endArrow=classic;html=1;rounded=0;" edge="1" parent="pvwoZCbLIYxk1e_d2Ucy-27">
          <mxGeometry width="50" height="50" relative="1" as="geometry">
            <mxPoint x="40" y="100" as="sourcePoint" />
            <mxPoint x="250" y="100" as="targetPoint" />
          </mxGeometry>
        </mxCell>
        <mxCell id="pvwoZCbLIYxk1e_d2Ucy-30" value="&lt;font style=&quot;font-size: 10px;&quot;&gt;Responde questões&lt;/font&gt;" style="edgeLabel;html=1;align=center;verticalAlign=middle;resizable=0;points=[];" vertex="1" connectable="0" parent="pvwoZCbLIYxk1e_d2Ucy-29">
          <mxGeometry x="-0.3684" y="4" relative="1" as="geometry">
            <mxPoint x="10" y="-6" as="offset" />
          </mxGeometry>
        </mxCell>
        <mxCell id="pvwoZCbLIYxk1e_d2Ucy-31" value="" style="endArrow=classic;html=1;rounded=0;exitX=0.038;exitY=0.7;exitDx=0;exitDy=0;exitPerimeter=0;" edge="1" parent="pvwoZCbLIYxk1e_d2Ucy-27" source="pvwoZCbLIYxk1e_d2Ucy-41">
          <mxGeometry width="50" height="50" relative="1" as="geometry">
            <mxPoint x="60" y="250" as="sourcePoint" />
            <mxPoint x="250" y="250" as="targetPoint" />
          </mxGeometry>
        </mxCell>
        <mxCell id="pvwoZCbLIYxk1e_d2Ucy-32" value="" style="endArrow=classic;html=1;rounded=0;" edge="1" parent="pvwoZCbLIYxk1e_d2Ucy-27">
          <mxGeometry width="50" height="50" relative="1" as="geometry">
            <mxPoint x="250" y="258" as="sourcePoint" />
            <mxPoint x="470" y="258" as="targetPoint" />
          </mxGeometry>
        </mxCell>
        <mxCell id="pvwoZCbLIYxk1e_d2Ucy-33" value="Processamento da resposta" style="swimlane;whiteSpace=wrap;html=1;startSize=23;" vertex="1" parent="pvwoZCbLIYxk1e_d2Ucy-27">
          <mxGeometry x="170" y="110" width="230" height="125" as="geometry" />
        </mxCell>
        <mxCell id="pvwoZCbLIYxk1e_d2Ucy-34" value="" style="endArrow=classic;html=1;rounded=0;" edge="1" parent="pvwoZCbLIYxk1e_d2Ucy-33">
          <mxGeometry width="50" height="50" relative="1" as="geometry">
            <mxPoint x="80" y="95" as="sourcePoint" />
            <mxPoint x="80" y="115" as="targetPoint" />
            <Array as="points">
              <mxPoint x="140" y="95" />
              <mxPoint x="140" y="115" />
            </Array>
          </mxGeometry>
        </mxCell>
        <mxCell id="pvwoZCbLIYxk1e_d2Ucy-35" value="" style="endArrow=classic;html=1;rounded=0;" edge="1" parent="pvwoZCbLIYxk1e_d2Ucy-33">
          <mxGeometry width="50" height="50" relative="1" as="geometry">
            <mxPoint x="80" y="45" as="sourcePoint" />
            <mxPoint x="80" y="65" as="targetPoint" />
            <Array as="points">
              <mxPoint x="140" y="45" />
              <mxPoint x="140" y="65" />
            </Array>
          </mxGeometry>
        </mxCell>
        <mxCell id="pvwoZCbLIYxk1e_d2Ucy-36" value="&lt;font style=&quot;font-size: 10px;&quot;&gt;Usuário respondeu()&lt;/font&gt;" style="text;html=1;align=center;verticalAlign=middle;resizable=0;points=[];autosize=1;strokeColor=none;fillColor=none;" vertex="1" parent="pvwoZCbLIYxk1e_d2Ucy-33">
          <mxGeometry x="80" y="18" width="110" height="30" as="geometry" />
        </mxCell>
        <mxCell id="pvwoZCbLIYxk1e_d2Ucy-37" value="&lt;font style=&quot;font-size: 10px;&quot;&gt;Habilitar botões()&lt;/font&gt;" style="text;html=1;align=center;verticalAlign=middle;resizable=0;points=[];autosize=1;strokeColor=none;fillColor=none;" vertex="1" parent="pvwoZCbLIYxk1e_d2Ucy-33">
          <mxGeometry x="80" y="68" width="100" height="30" as="geometry" />
        </mxCell>
        <mxCell id="pvwoZCbLIYxk1e_d2Ucy-38" value="" style="endArrow=classic;html=1;rounded=0;" edge="1" parent="pvwoZCbLIYxk1e_d2Ucy-27">
          <mxGeometry width="50" height="50" relative="1" as="geometry">
            <mxPoint x="470" y="48" as="sourcePoint" />
            <mxPoint x="250" y="48" as="targetPoint" />
            <Array as="points">
              <mxPoint x="380" y="48" />
            </Array>
          </mxGeometry>
        </mxCell>
        <mxCell id="pvwoZCbLIYxk1e_d2Ucy-39" value="&lt;font style=&quot;font-size: 10px;&quot;&gt;[Para cada uma das 10 questões]&lt;/font&gt;" style="text;html=1;align=center;verticalAlign=middle;resizable=0;points=[];autosize=1;strokeColor=none;fillColor=none;" vertex="1" parent="pvwoZCbLIYxk1e_d2Ucy-27">
          <mxGeometry x="60" y="18" width="170" height="30" as="geometry" />
        </mxCell>
        <mxCell id="pvwoZCbLIYxk1e_d2Ucy-40" value="&lt;font style=&quot;font-size: 10px;&quot;&gt;Exibe questões e alternativas&lt;/font&gt;" style="text;html=1;align=center;verticalAlign=middle;resizable=0;points=[];autosize=1;strokeColor=none;fillColor=none;" vertex="1" parent="pvwoZCbLIYxk1e_d2Ucy-27">
          <mxGeometry x="60" y="48" width="150" height="30" as="geometry" />
        </mxCell>
        <mxCell id="pvwoZCbLIYxk1e_d2Ucy-41" value="&lt;font style=&quot;font-size: 10px;&quot;&gt;Clica &quot;Próxima questão&quot;&lt;/font&gt;" style="text;html=1;align=center;verticalAlign=middle;resizable=0;points=[];autosize=1;strokeColor=none;fillColor=none;" vertex="1" parent="pvwoZCbLIYxk1e_d2Ucy-27">
          <mxGeometry x="40" y="228" width="130" height="30" as="geometry" />
        </mxCell>
        <mxCell id="pvwoZCbLIYxk1e_d2Ucy-42" value="" style="endArrow=none;dashed=1;html=1;rounded=0;" edge="1" parent="pvwoZCbLIYxk1e_d2Ucy-27">
          <mxGeometry width="50" height="50" relative="1" as="geometry">
            <mxPoint x="40" y="310" as="sourcePoint" />
            <mxPoint x="40" y="120" as="targetPoint" />
            <Array as="points" />
          </mxGeometry>
        </mxCell>
        <mxCell id="pvwoZCbLIYxk1e_d2Ucy-43" value="" style="endArrow=classic;html=1;rounded=0;movable=0;resizable=0;rotatable=0;deletable=0;editable=0;locked=1;connectable=0;" edge="1" parent="1">
          <mxGeometry width="50" height="50" relative="1" as="geometry">
            <mxPoint x="302" y="295" as="sourcePoint" />
            <mxPoint x="522" y="295" as="targetPoint" />
          </mxGeometry>
        </mxCell>
        <mxCell id="pvwoZCbLIYxk1e_d2Ucy-44" value="Solicitar questões (área)" style="edgeLabel;html=1;align=center;verticalAlign=middle;resizable=0;points=[];movable=0;rotatable=0;deletable=0;editable=0;locked=1;connectable=0;" vertex="1" connectable="0" parent="pvwoZCbLIYxk1e_d2Ucy-43">
          <mxGeometry x="-0.2222" y="4" relative="1" as="geometry">
            <mxPoint x="20" y="-6" as="offset" />
          </mxGeometry>
        </mxCell>
        <mxCell id="pvwoZCbLIYxk1e_d2Ucy-45" value="" style="endArrow=none;dashed=1;html=1;rounded=0;movable=0;resizable=0;rotatable=0;deletable=0;editable=0;locked=1;connectable=0;" edge="1" parent="1">
          <mxGeometry width="50" height="50" relative="1" as="geometry">
            <mxPoint x="522" y="865" as="sourcePoint" />
            <mxPoint x="522" y="195" as="targetPoint" />
          </mxGeometry>
        </mxCell>
        <mxCell id="pvwoZCbLIYxk1e_d2Ucy-46" value="" style="endArrow=none;dashed=1;html=1;rounded=0;movable=0;resizable=0;rotatable=0;deletable=0;editable=0;locked=1;connectable=0;" edge="1" parent="1">
          <mxGeometry width="50" height="50" relative="1" as="geometry">
            <mxPoint x="972" y="873" as="sourcePoint" />
            <mxPoint x="972" y="203" as="targetPoint" />
          </mxGeometry>
        </mxCell>
        <mxCell id="pvwoZCbLIYxk1e_d2Ucy-47" value="" style="endArrow=classic;html=1;rounded=0;movable=0;resizable=0;rotatable=0;deletable=0;editable=0;locked=1;connectable=0;" edge="1" parent="1">
          <mxGeometry width="50" height="50" relative="1" as="geometry">
            <mxPoint x="522" y="275" as="sourcePoint" />
            <mxPoint x="722" y="275" as="targetPoint" />
          </mxGeometry>
        </mxCell>
        <mxCell id="pvwoZCbLIYxk1e_d2Ucy-48" value="" style="endArrow=none;dashed=1;html=1;dashPattern=1 3;strokeWidth=2;rounded=0;movable=0;resizable=0;rotatable=0;deletable=0;editable=0;locked=1;connectable=0;" edge="1" parent="1">
          <mxGeometry width="50" height="50" relative="1" as="geometry">
            <mxPoint x="532" y="305" as="sourcePoint" />
            <mxPoint x="732" y="305" as="targetPoint" />
          </mxGeometry>
        </mxCell>
        <mxCell id="pvwoZCbLIYxk1e_d2Ucy-49" value="Status limite" style="edgeLabel;html=1;align=center;verticalAlign=middle;resizable=0;points=[];movable=0;rotatable=0;deletable=0;editable=0;locked=1;connectable=0;" vertex="1" connectable="0" parent="pvwoZCbLIYxk1e_d2Ucy-48">
          <mxGeometry x="-0.23" y="5" relative="1" as="geometry">
            <mxPoint x="3" y="-5" as="offset" />
          </mxGeometry>
        </mxCell>
        <mxCell id="pvwoZCbLIYxk1e_d2Ucy-50" value="" style="endArrow=classic;html=1;rounded=0;" edge="1" parent="1">
          <mxGeometry width="50" height="50" relative="1" as="geometry">
            <mxPoint x="532" y="305" as="sourcePoint" />
            <mxPoint x="522" y="305" as="targetPoint" />
          </mxGeometry>
        </mxCell>
        <mxCell id="pvwoZCbLIYxk1e_d2Ucy-51" value=":TelaQuestõesUI" style="rounded=0;whiteSpace=wrap;html=1;fillColor=#9E9E9E;movable=0;resizable=0;rotatable=0;deletable=0;editable=0;locked=1;connectable=0;" vertex="1" parent="1">
          <mxGeometry x="252" y="155" width="120" height="30" as="geometry" />
        </mxCell>
        <mxCell id="pvwoZCbLIYxk1e_d2Ucy-52" value=":GerenciadorQuestões" style="rounded=0;whiteSpace=wrap;html=1;fillColor=#9E9E9E;movable=0;resizable=0;rotatable=0;deletable=0;editable=0;locked=1;connectable=0;" vertex="1" parent="1">
          <mxGeometry x="452" y="155" width="134" height="30" as="geometry" />
        </mxCell>
        <mxCell id="pvwoZCbLIYxk1e_d2Ucy-53" value=":ContadorLImiteDiário" style="rounded=0;whiteSpace=wrap;html=1;fillColor=#9E9E9E;movable=0;resizable=0;rotatable=0;deletable=0;editable=0;locked=1;connectable=0;" vertex="1" parent="1">
          <mxGeometry x="662" y="155" width="120" height="30" as="geometry" />
        </mxCell>
        <mxCell id="pvwoZCbLIYxk1e_d2Ucy-54" value=":RepositórioQuestões" style="rounded=0;whiteSpace=wrap;html=1;fillColor=#9E9E9E;movable=0;resizable=0;rotatable=0;deletable=0;editable=0;locked=1;connectable=0;" vertex="1" parent="1">
          <mxGeometry x="902" y="155" width="120" height="30" as="geometry" />
        </mxCell>
        <mxCell id="pvwoZCbLIYxk1e_d2Ucy-55" value="" style="shape=link;html=1;rounded=0;movable=0;resizable=0;rotatable=0;deletable=0;editable=0;locked=1;connectable=0;" edge="1" parent="1" target="pvwoZCbLIYxk1e_d2Ucy-56">
          <mxGeometry width="100" relative="1" as="geometry">
            <mxPoint x="2" y="240" as="sourcePoint" />
            <mxPoint x="1162" y="245" as="targetPoint" />
            <Array as="points">
              <mxPoint x="282" y="240" />
            </Array>
          </mxGeometry>
        </mxCell>
        <mxCell id="pvwoZCbLIYxk1e_d2Ucy-56" value="Solicitação de Verificação" style="rounded=0;whiteSpace=wrap;html=1;fillColor=#E3E3E3;movable=0;resizable=0;rotatable=0;deletable=0;editable=0;locked=1;connectable=0;" vertex="1" parent="1">
          <mxGeometry x="372" y="225" width="170" height="30" as="geometry" />
        </mxCell>
        <mxCell id="pvwoZCbLIYxk1e_d2Ucy-57" value="&lt;font style=&quot;font-size: 10px;&quot;&gt;Solicita listagem de questões (área)&lt;/font&gt;" style="text;html=1;align=center;verticalAlign=middle;resizable=0;points=[];autosize=1;strokeColor=none;fillColor=none;movable=0;rotatable=0;deletable=0;editable=0;locked=1;connectable=0;" vertex="1" parent="1">
          <mxGeometry x="92" y="245" width="180" height="30" as="geometry" />
        </mxCell>
        <mxCell id="pvwoZCbLIYxk1e_d2Ucy-58" value="Verificar limite (Usuário)" style="text;html=1;align=center;verticalAlign=middle;resizable=0;points=[];autosize=1;strokeColor=none;fillColor=none;movable=0;rotatable=0;deletable=0;editable=0;locked=1;connectable=0;" vertex="1" parent="1">
          <mxGeometry x="542" y="253" width="150" height="30" as="geometry" />
        </mxCell>
        <mxCell id="pvwoZCbLIYxk1e_d2Ucy-59" value="&lt;span style=&quot;font-size: 10px;&quot;&gt;[Limite atingido]&lt;/span&gt;" style="text;html=1;align=center;verticalAlign=middle;resizable=0;points=[];autosize=1;strokeColor=none;fillColor=none;movable=0;rotatable=0;deletable=0;editable=0;locked=1;connectable=0;" vertex="1" parent="1">
          <mxGeometry x="127" y="333" width="90" height="30" as="geometry" />
        </mxCell>
        <mxCell id="pvwoZCbLIYxk1e_d2Ucy-60" value="[&lt;font style=&quot;font-size: 10px;&quot;&gt;Limite nãp atendido]&lt;/font&gt;" style="text;html=1;align=center;verticalAlign=middle;resizable=0;points=[];autosize=1;strokeColor=none;fillColor=none;" vertex="1" parent="1">
          <mxGeometry x="22" y="413" width="120" height="30" as="geometry" />
        </mxCell>
        <mxCell id="pvwoZCbLIYxk1e_d2Ucy-61" value="&lt;font style=&quot;font-size: 10px;&quot;&gt;Exibir próxima questão&lt;/font&gt;" style="text;html=1;align=center;verticalAlign=middle;resizable=0;points=[];autosize=1;strokeColor=none;fillColor=none;movable=0;rotatable=0;deletable=0;editable=0;locked=1;connectable=0;" vertex="1" parent="1">
          <mxGeometry x="307" y="553" width="130" height="30" as="geometry" />
        </mxCell>
        <mxCell id="pvwoZCbLIYxk1e_d2Ucy-62" value="&lt;font style=&quot;font-size: 10px;&quot;&gt;Solicitar próxima()&lt;/font&gt;" style="text;html=1;align=center;verticalAlign=middle;resizable=0;points=[];autosize=1;strokeColor=none;fillColor=none;" vertex="1" parent="1">
          <mxGeometry x="332" y="763" width="100" height="30" as="geometry" />
        </mxCell>
        <mxCell id="pvwoZCbLIYxk1e_d2Ucy-63" value="&lt;font style=&quot;font-size: 10px;&quot;&gt;Exibir botão gerar mais()&lt;/font&gt;" style="text;html=1;align=center;verticalAlign=middle;resizable=0;points=[];autosize=1;strokeColor=none;fillColor=none;" vertex="1" parent="1">
          <mxGeometry x="307" y="793" width="130" height="30" as="geometry" />
        </mxCell>
        <mxCell id="pvwoZCbLIYxk1e_d2Ucy-64" value="" style="shape=link;html=1;rounded=0;" edge="1" parent="1">
          <mxGeometry width="100" relative="1" as="geometry">
            <mxPoint x="542" y="239.17000000000002" as="sourcePoint" />
            <mxPoint x="1162" y="239" as="targetPoint" />
            <Array as="points">
              <mxPoint x="822" y="239.17000000000002" />
            </Array>
          </mxGeometry>
        </mxCell>
        <mxCell id="pvwoZCbLIYxk1e_d2Ucy-65" value="" style="shape=link;html=1;rounded=0;movable=0;resizable=0;rotatable=0;deletable=0;editable=0;locked=1;connectable=0;" edge="1" parent="1">
          <mxGeometry width="100" relative="1" as="geometry">
            <mxPoint x="542" y="239.46" as="sourcePoint" />
            <mxPoint x="1162" y="239.29000000000002" as="targetPoint" />
            <Array as="points">
              <mxPoint x="822" y="239.46" />
            </Array>
          </mxGeometry>
        </mxCell>
        <mxCell id="pvwoZCbLIYxk1e_d2Ucy-66" value="" style="endArrow=classic;html=1;rounded=0;" edge="1" parent="1" target="pvwoZCbLIYxk1e_d2Ucy-67">
          <mxGeometry width="50" height="50" relative="1" as="geometry">
            <mxPoint x="92" y="283" as="sourcePoint" />
            <mxPoint x="302" y="283" as="targetPoint" />
          </mxGeometry>
        </mxCell>
        <mxCell id="pvwoZCbLIYxk1e_d2Ucy-67" value="" style="rounded=0;whiteSpace=wrap;html=1;movable=0;resizable=0;rotatable=0;deletable=0;editable=0;locked=1;connectable=0;" vertex="1" parent="1">
          <mxGeometry x="82" y="245" width="20" height="60" as="geometry" />
        </mxCell>
        <mxCell id="pvwoZCbLIYxk1e_d2Ucy-68" value="" style="endArrow=none;dashed=1;html=1;rounded=0;movable=0;resizable=0;rotatable=0;deletable=0;editable=0;locked=1;connectable=0;" edge="1" parent="1">
          <mxGeometry width="50" height="50" relative="1" as="geometry">
            <mxPoint x="302" y="865" as="sourcePoint" />
            <mxPoint x="297" y="185" as="targetPoint" />
          </mxGeometry>
        </mxCell>
        <mxCell id="pvwoZCbLIYxk1e_d2Ucy-69" value="" style="rounded=0;whiteSpace=wrap;html=1;movable=0;resizable=0;rotatable=0;deletable=0;editable=0;locked=1;connectable=0;" vertex="1" parent="1">
          <mxGeometry x="512" y="558" width="20" height="37" as="geometry" />
        </mxCell>
        <mxCell id="pvwoZCbLIYxk1e_d2Ucy-70" value="opt" style="shape=umlFrame;whiteSpace=wrap;html=1;pointerEvents=0;" vertex="1" parent="1">
          <mxGeometry x="577" y="1005" width="290" height="97" as="geometry" />
        </mxCell>
      </root>
    </mxGraphModel>
  </diagram>
</mxfile>
